<svg width="16" height="21" viewBox="0 0 16 21" fill="none" xmlns="http://www.w3.org/2000/svg">
<path fill-rule="evenodd" clip-rule="evenodd" d="M6.22478 0.0253359C5.25538 0.156224 4.47281 0.982335 4.33512 2.02015L4.30557 2.24283H2.97969C1.51285 2.24283 1.23666 2.27457 0.839885 2.48872C0.513106 2.66508 0.330006 2.87092 0.143078 3.27198C0.00885288 3.55991 0 3.61223 0 4.11801C0 4.62558 0.0085303 4.67537 0.145291 4.96893C0.395389 5.5056 0.814571 5.83545 1.38209 5.94214C1.76231 6.01359 14.2361 6.01368 14.6198 5.94224C15.1985 5.83446 15.6102 5.50335 15.872 4.93513C15.9887 4.68174 16 4.60941 16 4.11801C16 3.62662 15.9887 3.55429 15.872 3.3009C15.6102 2.73268 15.1985 2.40157 14.6198 2.29379C14.463 2.26458 13.7691 2.24283 12.9944 2.24283H11.6427V2.06385C11.6427 1.8212 11.5234 1.42516 11.3647 1.14074C11.0568 0.589063 10.4154 0.138691 9.79827 0.040853C9.51917 -0.00340134 6.53363 -0.01634 6.22478 0.0253359ZM9.79818 1.56303C9.97021 1.65346 10.1583 1.90502 10.1956 2.09441L10.2248 2.24283H8.00576H5.78674V2.13257C5.78674 1.98462 5.96099 1.7302 6.15202 1.59936C6.30677 1.49332 6.31659 1.49276 7.98607 1.49276C9.3873 1.49276 9.68659 1.50439 9.79818 1.56303ZM1.49874 7.66914C1.49888 7.76585 1.62292 10.378 1.77443 13.474C2.02084 18.5094 2.05976 19.1355 2.14354 19.4113C2.37754 20.1817 3.00436 20.7561 3.79739 20.927C4.24913 21.0243 11.7509 21.0243 12.2026 20.927C12.9951 20.7562 13.6225 20.1817 13.8561 19.4126C13.9393 19.1386 13.979 18.501 14.2253 13.4753C14.3772 10.3786 14.5014 7.76585 14.5014 7.66914L14.5014 7.49334H8H1.49856L1.49874 7.66914ZM5.42146 9.10009C5.50704 9.15869 5.62425 9.27786 5.68189 9.36487L5.78674 9.52304V14.244V18.965L5.68189 19.1231C5.35128 19.6219 4.7467 19.6219 4.41609 19.1231L4.31124 18.965V14.244V9.52304L4.41609 9.36487C4.57711 9.12189 4.79594 8.99349 5.04899 8.99349C5.19825 8.99349 5.31444 9.02673 5.42146 9.10009ZM8.37247 9.10009C8.45805 9.15869 8.57526 9.27786 8.6329 9.36487L8.73775 9.52304V14.244V18.965L8.6329 19.1231C8.30229 19.6219 7.69771 19.6219 7.3671 19.1231L7.26225 18.965V14.244V9.52304L7.3671 9.36487C7.52812 9.12189 7.74695 8.99349 8 8.99349C8.14926 8.99349 8.26545 9.02673 8.37247 9.10009ZM11.3235 9.10009C11.4091 9.15869 11.5263 9.27786 11.5839 9.36487L11.6888 9.52304V14.244V18.965L11.5839 19.1231C11.2533 19.6219 10.6487 19.6219 10.3181 19.1231L10.2133 18.965V14.244V9.52304L10.3181 9.36487C10.4791 9.12189 10.698 8.99349 10.951 8.99349C11.1003 8.99349 11.2165 9.02673 11.3235 9.10009Z" fill="#7C7C7C"/>
</svg>
