<svg width="21" height="13" viewBox="0 0 21 13" fill="none" xmlns="http://www.w3.org/2000/svg">
<path fill-rule="evenodd" clip-rule="evenodd" d="M11.4389 0.0256093C14.1277 0.3416 16.9222 1.86079 19.5124 4.41479C20.6568 5.54312 20.934 5.9085 20.9936 6.36668C21.0255 6.61219 20.9356 6.98697 20.7929 7.20367C20.5071 7.6376 18.935 9.20052 18.135 9.84614C15.9859 11.5803 14.019 12.5546 11.9525 12.9085C11.4988 12.9862 11.2791 13 10.4939 13C9.44832 13 8.91596 12.9317 8.00814 12.6808C5.58982 12.0127 2.97194 10.2677 0.725885 7.82681C0.131649 7.181 -0.00287056 6.93553 4.57764e-05 6.50247C0.00374413 5.96097 0.223312 5.65011 1.47535 4.41392C3.93867 1.98177 6.5494 0.508011 9.15393 0.0793017C9.5989 0.00605253 10.9938 -0.0267003 11.4389 0.0256093ZM9.63633 2.2217C8.24973 2.45749 7.00205 3.39088 6.38735 4.6522C5.78424 5.88981 5.80474 7.22078 6.44607 8.45958C7.41308 10.3275 9.63239 11.2744 11.7184 10.7091C12.219 10.5735 12.9154 10.2294 13.3211 9.91729C15.4347 8.29115 15.6192 5.28908 13.7192 3.43991C12.6411 2.3906 11.1897 1.95755 9.63633 2.2217ZM11.2137 3.47725C12.3953 3.73607 13.3631 4.66994 13.6402 5.81873C13.7222 6.15875 13.7223 6.84723 13.6404 7.18673C13.3302 8.47333 12.213 9.43323 10.8532 9.58167C9.22259 9.75969 7.72041 8.73349 7.34735 7.18673C7.26546 6.84723 7.26558 6.15875 7.34763 5.81873C7.59929 4.77523 8.39876 3.92267 9.45875 3.56753C9.77882 3.46026 9.87578 3.44655 10.3912 3.43545C10.7746 3.42723 11.0488 3.44114 11.2137 3.47725Z" fill="#7C7C7C"/>
</svg>
