<svg width="33" height="33" viewBox="0 0 33 33" fill="none" xmlns="http://www.w3.org/2000/svg">
<path fill-rule="evenodd" clip-rule="evenodd" d="M13.9683 2.09124C12.9902 2.30911 12.34 2.67113 11.6114 3.40346C11.1503 3.86691 11.0049 4.06754 10.7156 4.63951C10.4801 5.10515 10.3602 5.42645 10.3387 5.64966C10.3099 5.94883 10.3241 5.99392 10.5036 6.17293C10.6562 6.325 10.7571 6.36887 10.9545 6.36887C11.3193 6.36887 11.5125 6.18908 11.6768 5.69655C12.1994 4.13109 13.8563 3.07856 15.3974 3.33315C16.2352 3.47158 17.1433 4.05493 17.7019 4.81351C17.9556 5.15816 18.3338 5.89351 18.4521 6.27238C18.5767 6.67158 18.8112 6.88372 19.1257 6.88204C19.5005 6.87999 19.6459 6.733 19.8917 6.10739C20.1326 5.49412 20.5706 4.78051 20.9736 4.34465C22.5503 2.63929 25.3309 3.09303 26.3867 5.22801C27.08 6.63009 26.9715 8.227 26.0874 9.63094C25.3437 10.8119 24.2199 11.9486 21.3782 14.394C19.1873 16.2794 19.2481 16.231 19.1466 16.1696C19.1019 16.1425 18.1369 15.3375 17.0023 14.3804C15.1032 12.7788 13.4758 11.2601 12.6731 10.3409C12.3739 9.99823 12.3298 9.97102 12.0736 9.97102C11.5747 9.97102 11.2672 10.4589 11.4931 10.8919C11.5947 11.0865 12.0718 11.6503 12.6114 12.2131C13.2279 12.8562 14.3471 13.8519 16.42 15.6016C17.3781 16.4103 18.3439 17.2255 18.5661 17.4131C18.9896 17.7706 19.2137 17.8345 19.5028 17.6802C19.6854 17.5828 23.4147 14.3813 24.4736 13.4131C26.4307 11.6234 27.6117 10.0061 27.9674 8.62851C28.7357 5.65307 27.0716 2.66765 24.3235 2.09131C23.7417 1.96929 22.9374 1.96961 22.3576 2.09202C21.1906 2.33851 19.9736 3.24509 19.3102 4.36208L19.1459 4.6388L18.8716 4.23343C18.1093 3.10654 17.1747 2.4146 16.0157 2.1191C15.444 1.97327 14.5524 1.96118 13.9683 2.09124ZM10.6133 7.73003C10.01 8.06078 10.221 8.94183 10.9037 8.94183C11.1139 8.94183 11.2123 8.90124 11.3603 8.75381C11.8661 8.24945 11.2375 7.38783 10.6133 7.73003ZM0.354853 16.3478C0.283882 16.3876 0.175684 16.4815 0.114327 16.5565C0.0105165 16.6836 0.0027743 17.1066 0.00141941 22.7282L0 28.7636L0.188588 28.9516L0.377176 29.1396H2.62881C5.17259 29.1396 5.26085 29.1266 5.77352 28.6767C5.93669 28.5335 6.12773 28.3039 6.19805 28.1664C6.32309 27.9221 6.33212 27.9174 6.59858 27.9579C7.03628 28.0246 7.9178 28.2921 8.2462 28.458C8.41285 28.5422 9.33301 29.0806 10.291 29.6544C12.3512 30.8885 12.5819 31.0086 13.4412 31.2952C14.4347 31.6267 15.2029 31.7314 16.3555 31.6922C17.9692 31.6375 18.1086 31.5916 22.3557 29.7205C23.7396 29.1108 26.3236 27.9754 28.0979 27.1973C29.8722 26.4193 31.4767 25.7082 31.6636 25.617C32.0944 25.4068 32.603 24.8731 32.8274 24.3959C32.9804 24.0704 33.0012 23.9484 33 23.3826C32.9987 22.79 32.9822 22.7057 32.7899 22.3113C32.5291 21.7763 32.0201 21.2948 31.5011 21.0919C31.213 20.9793 31.0006 20.9472 30.5496 20.9477L29.9689 20.9485L26.8075 22.0399L23.6461 23.1313L23.6104 22.6459C23.5456 21.7631 23.2155 21.1385 22.5477 20.6349C21.9393 20.1762 21.9335 20.1753 19.1298 20.1367L16.6136 20.1021L14.6897 19.0164C13.527 18.3602 12.5699 17.8646 12.2703 17.7635L11.7747 17.5962L9.06275 17.575L6.3509 17.5537L6.19766 17.2658C6.02301 16.9376 5.7321 16.6625 5.33711 16.4521C5.07091 16.3102 5.01265 16.3066 2.7743 16.2911C1.16869 16.2801 0.445308 16.297 0.354853 16.3478ZM4.95045 17.7718L5.12924 17.9501V22.714V27.4777L4.91852 27.6654L4.7078 27.8531H2.99909H1.29037V22.7042V17.5554L3.03102 17.5744L4.77167 17.5934L4.95045 17.7718ZM2.9356 18.9224C2.33229 19.2532 2.54333 20.1342 3.22593 20.1342C3.43614 20.1342 3.53459 20.0936 3.68253 19.9462C4.18842 19.4419 3.55975 18.5802 2.9356 18.9224ZM11.8392 18.9942C12.0166 19.0528 12.7134 19.4081 13.3876 19.7839C14.0618 20.1596 14.9903 20.6744 15.4509 20.9278L16.2884 21.3886L18.8382 21.4207C21.6657 21.4564 21.5884 21.4446 21.9885 21.899C22.5317 22.5156 22.3425 23.4588 21.602 23.8266L21.2658 23.9937H17.7672H14.2685L14.0722 24.1584C13.7118 24.4607 13.7672 25.0249 14.1755 25.2104C14.2804 25.258 15.4722 25.2795 17.9231 25.278C21.2435 25.2761 21.5415 25.267 21.8396 25.1581C22.017 25.0933 23.9802 24.414 26.2021 23.6486C30.5964 22.1349 30.6687 22.1166 31.1623 22.3932C31.8445 22.7754 31.9007 23.9225 31.2578 24.3425C30.9187 24.564 18.457 29.993 17.9518 30.1393C16.9534 30.4284 16.0559 30.487 15.0166 30.3308C13.7574 30.1415 13.2623 29.9158 10.5468 28.292C8.54989 27.0979 8.17284 26.9285 7.03441 26.7139L6.45187 26.6041V22.7213V18.8385L8.98423 18.8631C11.1221 18.8838 11.5668 18.9043 11.8392 18.9942Z" fill="#EE8D31"/>
</svg>
