<svg width="48" height="40" viewBox="0 0 48 40" fill="none" xmlns="http://www.w3.org/2000/svg">
<path fill-rule="evenodd" clip-rule="evenodd" d="M1.15239 0.168135C0.372927 0.578132 -0.116583 1.48193 0.0240281 2.25166C0.127468 2.81799 0.505465 3.36506 0.990656 3.65048L1.43398 3.91138L4.39075 3.95835C6.90607 3.99828 7.38957 4.02853 7.62911 4.16081C8.00767 4.36985 8.29593 4.69126 8.45973 5.08707C8.53426 5.26717 9.97707 10.1074 11.666 15.843C13.9361 23.5525 14.8255 26.4429 15.0769 26.9291C15.5737 27.8898 16.5294 28.8156 17.5374 29.313C18.937 30.0036 18.5094 29.9792 29.2182 29.9792C39.93 29.9792 39.5164 30.0028 40.8854 29.3131C41.9665 28.7686 42.8262 27.9088 43.3372 26.8612C43.7453 26.0245 47.7795 13.3405 47.9555 12.3408C48.1988 10.9581 47.4226 9.3164 46.1813 8.58829C45.1855 8.00421 46.4916 8.04968 29.2226 7.99819L13.4576 7.95122L12.8275 5.80738C12.4808 4.62821 12.089 3.44445 11.9568 3.17678C11.2332 1.7122 9.81928 0.583488 8.17879 0.160996C7.32949 -0.0577196 1.57065 -0.051895 1.15239 0.168135ZM21.063 32.1479C20.4398 32.3045 19.6225 32.8027 19.1251 33.3291C18.2165 34.2907 17.8654 35.5093 18.1271 36.7935C18.7524 39.8621 22.4409 41.0497 24.7012 38.9102C26.8357 36.8897 26.1498 33.3591 23.4191 32.3107C22.8559 32.0945 21.616 32.0089 21.063 32.1479ZM35.0145 32.1945C33.8596 32.5058 33.0154 33.2017 32.4815 34.2832C32.1371 34.9806 32.128 35.0258 32.128 36.0393C32.128 37.0337 32.1422 37.1084 32.4491 37.7322C33.2308 39.3217 34.9681 40.2383 36.6448 39.946C37.9466 39.7191 39.0143 38.9188 39.5979 37.7322C39.9044 37.109 39.9189 37.033 39.9189 36.0442C39.9189 35.0752 39.8997 34.9683 39.6199 34.3771C38.7793 32.6012 36.8674 31.6951 35.0145 32.1945Z" fill="#EE8D31"/>
</svg>
