<svg width="162" height="162" viewBox="0 0 162 162" fill="none" xmlns="http://www.w3.org/2000/svg">
<rect width="162" height="162" rx="81" fill="white"/>
<path d="M50.8312 75.3185C49.902 74.8235 48.79 75.601 49.0259 76.627C51.032 85.3509 55.6555 94.3444 61.9343 100.623C70.7186 109.407 82.6326 114.342 95.0555 114.342C107.478 114.342 119.392 109.407 128.177 100.623C134.431 94.3684 138.735 86.5268 140.694 78.0445C140.934 77.0083 139.71 76.0583 138.706 76.4081C126.929 80.5101 80.4303 91.0864 50.8312 75.3185Z" fill="#EE8D31"/>
<path fill-rule="evenodd" clip-rule="evenodd" d="M22.1499 63.5359C16.9814 64.4676 14.1804 66.0978 14.3607 68.0691C14.5241 69.8547 16.478 71.4718 19.8551 72.6168C22.329 73.4553 25.5322 73.806 29.3657 73.6579C33.1472 73.5118 33.6727 73.5217 37.0361 73.8041C44.1412 74.4002 54.2747 77.2037 64.1108 81.2939C68.9905 83.3231 79.4733 88.1267 80.1733 88.6548C80.5405 88.9315 81.6654 90.2599 82.6727 91.6065C86.3016 96.4575 89.6683 98.1826 95.8603 98.3646C99.1189 98.4602 102.349 97.8333 105.247 96.542C111.363 93.8171 116.197 88.5064 116.386 84.3026C116.455 82.7668 115.887 81.9771 114.239 81.3178C111.829 80.3539 109.809 80.4037 94.3572 81.8073C81.9327 82.9359 79.6095 83.0844 78.3165 82.833C75.8542 82.3541 70.8628 80.1265 61.9776 75.5409C57.3801 73.1681 52.0095 70.4534 50.0429 69.5086C42.9157 66.0838 36.0268 63.627 31.9121 63.0425C29.572 62.7099 25.6247 62.9095 22.1499 63.5359ZM111.166 90.616C110.498 91.3509 107.132 93.5784 105.38 94.4447C101.324 96.4509 97.4962 96.9304 93.3455 95.9524C91.2404 95.4562 88.4262 94.4921 88.405 94.2594C88.3996 94.2014 89.476 94.3476 90.7969 94.5842C94.5479 95.2561 98.5014 95.2502 101.413 94.5684C104.003 93.9617 107.755 92.4625 109.865 91.1909C111.296 90.3281 111.516 90.2315 111.166 90.616Z" fill="#804314"/>
<path d="M47.1448 41.1337C47.4566 40.1602 47.7638 39.2716 47.8275 39.1594C48.0405 38.7838 48.1873 38.9442 49.5658 41.0559C52.6687 45.8091 54.008 49.8501 54.0137 54.4778C54.0173 57.2093 53.5633 60.0374 53.0728 60.3405C52.6464 60.6041 50.0759 51.7251 49.6625 48.5598C49.3528 46.1898 49.0004 47.2372 49.0004 50.5274C49.0004 53.6096 49.4002 56.2485 50.2137 58.5371C50.4484 59.197 50.593 59.7844 50.535 59.8421C50.3727 60.0047 49.077 58.3816 48.2703 57.0056C45.6993 52.6184 45.2946 46.9109 47.1448 41.1337Z" fill="#804314"/>
<path d="M58.2596 60.0989C58.2596 59.8669 59.8511 59.0723 61.119 58.6714C62.6934 58.1733 64.6356 58.2242 67.0223 58.8255C69.9602 59.566 75.1793 62.1803 74.6872 62.6654C74.5639 62.7868 73.3602 63.207 72.0122 63.5992C68.7807 64.539 64.863 64.7691 62.1076 64.1809C60.1653 63.7664 57.4353 62.4894 57.2403 61.9042C57.1874 61.746 57.6681 61.5578 58.3149 61.4837C60.2903 61.2569 66.7935 61.4712 67.5868 61.7893C67.9986 61.9543 68.3357 61.9864 68.3357 61.8604C68.3357 61.4687 65.0722 60.4189 63.0479 60.1594C61.9869 60.0235 60.4755 59.9903 59.6893 60.0859C58.9031 60.1814 58.2596 60.1872 58.2596 60.0989Z" fill="#804314"/>
<path d="M145.585 67.8792C146.481 67.8792 147.208 68.6053 147.191 69.5004C146.92 83.3575 143.128 96.5607 133.296 106.392C123.082 116.606 109.228 122.345 94.7833 122.345C80.3381 122.345 66.4845 116.607 56.2703 106.392C46.4816 96.6036 42.6794 83.4726 42.3796 69.6817C42.3579 68.6866 43.167 67.8792 44.1623 67.8792V67.8792C45.1576 67.8792 45.9611 68.6867 45.9963 69.6814C46.4334 82.027 51.3561 93.7727 60.1229 102.54C69.3154 111.732 81.7831 116.896 94.7833 116.896C107.783 116.896 120.251 111.732 129.444 102.54C138.253 93.7298 143.514 81.912 143.937 69.5002C143.967 68.6055 144.69 67.8792 145.585 67.8792V67.8792Z" fill="#804314"/>
</svg>
