<svg width="162" height="162" viewBox="0 0 162 162" fill="none" xmlns="http://www.w3.org/2000/svg">
<path d="M44.5731 74.1931C43.4486 73.594 42.1027 74.535 42.3883 75.7767C44.8161 86.3344 50.4115 97.2183 58.01 104.817C68.6408 115.448 83.0591 121.42 98.0933 121.42C113.127 121.42 127.546 115.448 138.177 104.817C145.746 97.2473 150.954 87.7574 153.325 77.4922C153.615 76.2381 152.135 75.0884 150.919 75.5118C136.666 80.476 80.3939 93.2755 44.5731 74.1931Z" fill="#EE8D31"/>
<path fill-rule="evenodd" clip-rule="evenodd" d="M9.86304 59.9338C3.60803 61.0614 0.218266 63.0342 0.436544 65.4199C0.634251 67.5808 2.99889 69.5378 7.0858 70.9235C10.0797 71.9383 13.9562 72.3626 18.5956 72.1834C23.172 72.0066 23.8079 72.0186 27.8784 72.3604C36.4769 73.0818 48.7405 76.4745 60.6442 81.4245C66.5496 83.8803 79.2359 89.6937 80.083 90.3327C80.5273 90.6676 81.8887 92.2753 83.1077 93.9048C87.4994 99.7755 91.5738 101.863 99.0674 102.083C103.011 102.199 106.92 101.441 110.427 99.8778C117.829 96.5802 123.679 90.1531 123.907 85.0657C123.991 83.2071 123.303 82.2513 121.309 81.4535C118.393 80.287 115.948 80.3472 97.2483 82.0459C82.2122 83.4117 79.4007 83.5914 77.8359 83.2872C74.856 82.7076 68.8154 80.0117 58.0625 74.4623C52.4987 71.5907 45.9991 68.3054 43.6192 67.1619C34.9937 63.0173 26.6568 60.044 21.6772 59.3367C18.8452 58.9342 14.0682 59.1757 9.86304 59.9338ZM117.59 92.7061C116.782 93.5956 112.708 96.2912 110.589 97.3396C105.679 99.7675 101.047 100.348 96.024 99.1643C93.4763 98.5637 90.0707 97.397 90.0449 97.1154C90.0385 97.0452 91.3411 97.2222 92.9396 97.5085C97.4792 98.3216 102.264 98.3144 105.787 97.4894C108.922 96.7551 113.462 94.9407 116.016 93.4019C117.748 92.3577 118.013 92.2408 117.59 92.7061Z" fill="#804314"/>
<path d="M40.1119 32.8227C40.4892 31.6445 40.861 30.5691 40.9381 30.4333C41.1958 29.9788 41.3735 30.1729 43.0418 32.7284C46.7969 38.4808 48.4177 43.3713 48.4247 48.9717C48.4289 52.2773 47.8795 55.6999 47.286 56.0667C46.7699 56.3857 43.659 45.6404 43.1588 41.8098C42.784 38.9415 42.3576 40.2091 42.3576 44.1909C42.3576 47.921 42.8414 51.1146 43.8258 53.8843C44.1099 54.6828 44.2849 55.3937 44.2147 55.4636C44.0183 55.6604 42.4502 53.6961 41.474 52.0308C38.3625 46.7214 37.8728 39.8142 40.1119 32.8227Z" fill="#804314"/>
<path d="M53.563 55.7744C53.563 55.4936 55.489 54.5319 57.0235 54.0468C58.9288 53.444 61.2793 53.5056 64.1676 54.2333C67.723 55.1294 74.0393 58.2933 73.4437 58.8803C73.2945 59.0273 71.8377 59.5358 70.2064 60.0104C66.2957 61.1477 61.5545 61.4262 58.2199 60.7143C55.8693 60.2127 52.5654 58.6674 52.3294 57.9591C52.2655 57.7676 52.8472 57.5399 53.6299 57.4503C56.0206 57.1757 63.8908 57.4351 64.8508 57.82C65.3491 58.0198 65.7572 58.0587 65.7572 57.9061C65.7572 57.4321 61.8076 56.1616 59.3579 55.8476C58.0739 55.6831 56.2447 55.6429 55.2933 55.7586C54.3418 55.8742 53.563 55.8812 53.563 55.7744Z" fill="#804314"/>
<path d="M159.245 65.1901C160.328 65.1901 161.209 66.0688 161.187 67.152C160.86 83.9219 156.271 99.9004 144.372 111.799C132.011 124.16 115.246 131.104 97.7639 131.104C80.2824 131.104 63.5168 124.16 51.1555 111.799C39.3092 99.9523 34.7079 84.0613 34.345 67.3715C34.3188 66.1672 35.2979 65.1901 36.5024 65.1901V65.1901C37.707 65.1901 38.6794 66.1674 38.722 67.3711C39.251 82.3117 45.2083 96.5264 55.818 107.136C66.9427 118.261 82.0312 124.511 97.7639 124.511C113.497 124.511 128.585 118.261 139.71 107.136C150.371 96.4745 156.738 82.1726 157.25 67.1518C157.287 66.069 158.161 65.1901 159.245 65.1901V65.1901Z" fill="#804314"/>
</svg>
