<svg width="52" height="52" viewBox="0 0 52 52" fill="none" xmlns="http://www.w3.org/2000/svg">
<path fill-rule="evenodd" clip-rule="evenodd" d="M32.2265 0.207333C31.422 0.545689 30.9298 0.950151 30.4788 1.64385C30.264 1.97417 30.0883 2.28008 30.0883 2.32371C30.0883 2.36734 30.045 2.51643 29.9921 2.65495L29.8958 2.90686L29.3021 2.664C28.5178 2.34304 27.4684 2.3291 26.6634 2.62871C25.9818 2.88245 25.1173 3.68253 24.8325 4.32314L24.6402 4.75536L24.017 4.7578C23.5951 4.75943 23.1982 4.84018 22.7889 5.00758C22.1863 5.2541 22.0148 5.25888 22.0129 5.02904C22.0104 4.72851 21.4924 3.84708 21.0561 3.40082C20.366 2.69502 19.6067 2.37222 18.641 2.37416C18.0028 2.37538 17.7751 2.4249 17.2812 2.66939C16.2068 3.20139 15.4413 4.36545 15.3134 5.66141L15.2473 6.33172L14.3889 6.29887C13.6384 6.27009 13.4569 6.29948 12.9429 6.53278C12.2234 6.85954 11.5562 7.48561 11.2064 8.16232C10.7412 9.06196 10.7663 9.45005 11.7348 16.3492C12.2177 19.7892 12.6311 22.6839 12.6533 22.7817C12.7334 23.1337 12.605 22.9443 12.1431 22.0291C11.2441 20.2481 10.1513 19.4605 8.5735 19.4566C7.86632 19.4549 7.66333 19.4979 7.07093 19.7757C6.27391 20.1493 5.5742 20.8023 5.21483 21.508C4.88235 22.1607 4.71463 23.0952 4.82552 23.6765C4.87295 23.9255 5.66056 26.2573 6.57574 28.8583C7.49091 31.4593 8.44461 34.1823 8.69513 34.9095C9.2771 36.5989 9.87737 37.7283 10.8012 38.8719C11.9906 40.3443 13.6511 41.6554 15.7001 42.74C16.4823 43.154 16.5971 43.2503 16.6487 43.5351C16.6809 43.7132 16.9763 45.5414 17.3054 47.5977C17.6991 50.0584 17.9615 51.4243 18.0732 51.594C18.3835 52.0654 18.5926 52.0908 20.1847 51.8516L31.6413 50.1111L31.1373 48.1254L20.694 49.7302C19.6534 49.8926 19.7991 50.2457 19.1377 45.959C18.7108 43.1924 18.5057 42.1097 18.3825 41.9744C18.2895 41.872 17.658 41.4855 16.9791 41.1153C15.2373 40.1653 14.4414 39.612 13.3985 38.6262C12.4363 37.7165 11.7931 36.8932 11.3337 35.9834C10.8558 35.0366 6.86325 23.5566 6.86897 23.1452C6.87858 22.4362 7.43878 21.7556 8.1989 21.5289C8.70248 21.3788 9.31216 21.5396 9.66447 21.9156C9.8095 22.0703 10.7636 23.7987 11.7849 25.7564C12.806 27.7142 13.7571 29.4189 13.8984 29.5448C14.3782 29.9722 15.2365 29.7304 15.4775 29.0997C15.5423 28.93 15.1798 26.0848 14.2433 19.4118C13.514 14.2156 12.9173 9.80579 12.9173 9.61226C12.9173 9.20261 13.2705 8.62892 13.6359 8.44494C13.7748 8.37507 14.1052 8.31721 14.3702 8.31639C15.0473 8.31426 15.518 8.72808 15.6756 9.46418C15.738 9.75494 16.2657 13.089 16.8483 16.873C17.4309 20.6571 17.9613 23.8531 18.0269 23.9753C18.1857 24.2703 18.7886 24.5138 19.1599 24.4326C19.5217 24.3536 19.9697 23.8432 19.9697 23.5101C19.9697 23.3739 19.3693 19.3844 18.6357 14.6446C17.7558 8.96056 17.3237 5.90539 17.3667 5.67066C17.5288 4.78313 18.2437 4.22835 18.9528 4.43979C19.4174 4.5783 19.921 5.12118 20.0693 5.64351C20.1291 5.85423 20.7529 9.77935 21.4556 14.366C22.1583 18.9527 22.7572 22.8123 22.7865 22.9429C22.988 23.8407 24.4128 23.9279 24.7722 23.0645C24.8758 22.8156 24.7253 21.6822 23.7525 15.3901L22.6113 8.00773L22.798 7.6287C22.9008 7.42031 23.1458 7.14206 23.3426 7.01046C24.0609 6.53003 25.1092 6.90856 25.3819 7.74687C25.4381 7.91946 25.9696 11.2184 26.5633 15.0779C27.1569 18.9374 27.6934 22.2233 27.7555 22.3797C27.8749 22.6802 28.3047 22.9597 28.6475 22.9597C29.2385 22.9597 29.6795 22.4632 29.6795 21.7981C29.6795 21.6011 29.2886 18.8961 28.8107 15.7869C28.3329 12.6777 27.9422 9.96485 27.9424 9.7583C27.9435 8.66787 29.248 8.0538 30.1722 8.70875C30.3361 8.82479 30.5221 9.0468 30.5855 9.2021C30.6488 9.3574 31.44 14.2669 32.3436 20.1121C34.136 31.7081 34.0843 31.2035 33.6639 32.9944C33.2909 34.5837 32.1538 37.0765 31.0654 38.6908C30.7298 39.1886 30.6 39.482 30.6014 39.7391C30.6025 39.9355 30.8747 41.8571 31.2063 44.0094C31.5378 46.1618 31.7905 47.9527 31.7677 47.9893C31.745 48.0259 31.4613 48.0872 31.1373 48.1254L31.6413 50.1111C33.3351 49.8733 33.71 49.7362 33.9247 49.2757C34.0098 49.0933 34.3687 47.1384 34.7223 44.9315L35.3652 40.9189L36.5479 40.2452C38.5907 39.0812 39.9734 37.9744 41.1624 36.5514C42.3262 35.1585 42.5247 34.7028 44.9068 27.9573C46.1266 24.5026 47.1547 21.4904 47.1911 21.2635C47.3894 20.0296 46.6071 18.4261 45.4491 17.6927C43.5178 16.4696 41.2321 17.118 40.1039 19.2091C39.8875 19.61 39.7406 19.7929 39.719 19.688C39.6998 19.5945 40.013 16.8715 40.4148 13.6368C41.2124 7.21905 41.2407 6.67719 40.8234 5.82586C40.53 5.22746 39.8722 4.54393 39.3199 4.26354C38.7184 3.95814 37.7622 3.80009 37.2168 3.91593L36.7574 4.01336L36.7047 3.39279C36.588 2.01892 35.7551 0.748073 34.6642 0.279337C33.8614 -0.0656301 32.9405 -0.0927841 32.2265 0.207333ZM0.83521 0.371884C0.563234 0.613625 0.503646 0.741564 0.503646 1.0844C0.503646 1.62808 0.646636 1.76345 3.34636 3.77619C5.19551 5.15484 5.52749 5.36526 5.85047 5.36333C6.79088 5.35763 7.20104 4.26019 6.50255 3.61876C6.12776 3.27471 2.19397 0.339543 1.91116 0.192892C1.54167 0.00139025 1.18517 0.0606814 0.83521 0.371884ZM50.07 0.200316C49.7547 0.38063 45.8134 3.32627 45.4974 3.61764C44.7976 4.26313 45.2092 5.35763 46.1539 5.36333C46.4828 5.36526 46.801 5.16349 48.658 3.77569C51.3583 1.75775 51.4964 1.62686 51.4964 1.0844C51.4964 0.354493 50.6825 -0.150041 50.07 0.200316ZM33.9526 2.2153C34.2903 2.42012 34.6772 3.08646 34.6895 3.48411C34.6969 3.72402 33.3248 12.6879 33.2865 12.6497C33.2721 12.6354 33.1251 11.7649 32.9599 10.7153C32.6261 8.59525 32.4189 8.02411 31.7465 7.37089L31.3506 6.98626L31.5954 5.33688C31.8919 3.3396 31.9678 3.03124 32.2516 2.67234C32.5393 2.30836 33.038 2.01017 33.359 2.01017C33.4995 2.01017 33.7667 2.10252 33.9526 2.2153ZM28.7112 4.65529C29.0851 4.88523 29.3737 5.40258 29.3713 5.83857C29.3691 6.24639 29.2768 6.34311 28.8107 6.42569C28.5859 6.46565 28.1603 6.60702 27.8651 6.73994L27.3282 6.98178L27.16 6.65675C27.0675 6.47796 26.8772 6.18171 26.7371 5.99844C26.4832 5.66609 26.483 5.66395 26.6655 5.26142C27.0129 4.49471 27.9828 4.2074 28.7112 4.65529ZM38.0777 5.97882C38.288 6.03689 38.5909 6.23917 38.7676 6.43942C39.0226 6.72835 39.0827 6.88639 39.0827 7.26746C39.0827 7.52649 38.5978 11.6526 38.0053 16.4365C37.1038 23.714 36.9475 25.182 37.0487 25.4249C37.2647 25.9439 38.0766 26.1815 38.5372 25.8606C38.6556 25.778 39.5219 24.359 40.4624 22.7072C41.4361 20.9969 42.3005 19.5965 42.4701 19.4544C43.4627 18.6234 45.1166 19.464 45.1296 20.8061C45.1332 21.1795 41.1155 32.7539 40.6928 33.5874C39.6825 35.5802 37.7929 37.2798 34.8586 38.8352C34.0473 39.2652 33.6067 39.5612 33.5191 39.7352C33.4473 39.8778 33.3338 40.3606 33.2669 40.8081C33.0409 42.3212 33.0303 42.3293 32.8387 41.138L32.6627 40.0442L33.2335 39.104C34.0067 37.8304 34.8202 36.1066 35.2474 34.8361C36.2022 31.9967 36.195 31.3806 35.1258 24.6131L34.3185 19.5035L35.3089 13.1466C36.0048 8.67997 36.3507 6.71157 36.4725 6.52678C36.6278 6.29073 37.339 5.88108 37.6006 5.87691C37.6568 5.876 37.8715 5.92186 38.0777 5.97882ZM45.5593 7.78318C45.035 8.20585 45.0001 8.89191 45.4803 9.34102C45.7416 9.58551 45.7492 9.58622 48.4387 9.61622C51.4457 9.64989 51.6486 9.61348 51.9086 8.99453C52.0927 8.5559 51.9974 8.16008 51.6343 7.8561L51.332 7.60297L48.5546 7.6052C46.0776 7.60724 45.7537 7.62646 45.5593 7.78318ZM0.365665 7.9578C0.00262159 8.26178 -0.0927387 8.6576 0.0914405 9.09623C0.351356 9.71518 0.554341 9.75159 3.56131 9.71792C6.25081 9.68792 6.25838 9.68721 6.51972 9.44272C6.9999 8.99361 6.96505 8.30755 6.44072 7.88488C6.24632 7.72816 5.92242 7.70894 3.4454 7.7069L0.667997 7.70467L0.365665 7.9578ZM5.45124 12.0021C5.30805 12.0717 4.17732 12.8903 2.93855 13.8212C0.595838 15.5816 0.34921 15.8423 0.491586 16.4068C0.607081 16.8647 0.997619 17.1628 1.48219 17.1628C1.88131 17.1628 2.08409 17.0335 4.28903 15.3736C5.89063 14.1678 6.70493 13.4901 6.78598 13.2954C7.12367 12.4844 6.23375 11.6222 5.45124 12.0021ZM45.8284 11.9462C45.5395 12.0513 45.2258 12.4085 45.1598 12.7075C45.0298 13.2961 45.2379 13.5131 47.7177 15.3743C49.9135 17.0224 50.1337 17.1628 50.5243 17.1628C51.0051 17.1628 51.3936 16.8615 51.5106 16.3981C51.6492 15.8488 51.3673 15.5527 49.0424 13.8044C46.4505 11.8554 46.3067 11.7722 45.8284 11.9462Z" fill="#804314"/>
</svg>
