<svg width="228" height="50" viewBox="0 0 228 50" fill="none" xmlns="http://www.w3.org/2000/svg">
<path d="M99.5388 31.0271H91.0748L89.3228 35.0057H86.9792L94.1919 19.0913H96.4445L103.68 35.0057H101.291L99.5388 31.0271ZM98.7425 29.2083L95.3068 21.4102L91.8711 29.2083H98.7425Z" fill="#804314"/>
<path d="M116.869 26.9576H119.053V33.1642C118.264 33.8159 117.347 34.3161 116.3 34.6647C115.253 35.0133 114.161 35.1876 113.023 35.1876C111.416 35.1876 109.967 34.839 108.678 34.1418C107.388 33.4294 106.372 32.4594 105.629 31.2317C104.901 29.9889 104.537 28.5945 104.537 27.0485C104.537 25.5025 104.901 24.1081 105.629 22.8653C106.372 21.6224 107.388 20.6524 108.678 19.9552C109.982 19.258 111.446 18.9094 113.069 18.9094C114.343 18.9094 115.496 19.1216 116.527 19.546C117.574 19.9552 118.461 20.5615 119.19 21.3648L117.779 22.7743C116.505 21.5466 114.965 20.9328 113.16 20.9328C111.947 20.9328 110.854 21.198 109.884 21.7285C108.928 22.2439 108.177 22.9714 107.631 23.9111C107.085 24.8356 106.812 25.8814 106.812 27.0485C106.812 28.2004 107.085 29.2462 107.631 30.1859C108.177 31.1105 108.928 31.838 109.884 32.3685C110.854 32.899 111.939 33.1642 113.137 33.1642C114.563 33.1642 115.807 32.8232 116.869 32.1411V26.9576Z" fill="#804314"/>
<path d="M123.409 19.0913H125.685V35.0057H123.409V19.0913Z" fill="#804314"/>
<path d="M130.68 18C131.105 18 131.454 18.1516 131.727 18.4547C132.015 18.7427 132.159 19.1064 132.159 19.546C132.159 19.7733 132.137 20.0007 132.091 20.228C132.046 20.4402 131.947 20.7509 131.795 21.1602L130.703 24.343H129.27L130.112 20.9555C129.823 20.8494 129.588 20.6751 129.406 20.4326C129.239 20.175 129.156 19.8794 129.156 19.546C129.156 19.0913 129.3 18.7199 129.588 18.432C129.877 18.144 130.241 18 130.68 18Z" fill="#804314"/>
<path d="M140.472 35.1876C139.273 35.1876 138.113 35.0057 136.99 34.642C135.883 34.263 135.011 33.778 134.374 33.1869L135.216 31.4136C135.822 31.9592 136.596 32.4064 137.537 32.755C138.492 33.0884 139.471 33.2551 140.472 33.2551C141.791 33.2551 142.777 33.0354 143.43 32.5958C144.082 32.1411 144.408 31.5424 144.408 30.7998C144.408 30.2541 144.226 29.8146 143.862 29.4811C143.513 29.1325 143.073 28.8673 142.542 28.6854C142.026 28.5035 141.291 28.2989 140.335 28.0716C139.137 27.7836 138.166 27.4956 137.423 27.2076C136.695 26.9197 136.065 26.4801 135.534 25.889C135.019 25.2828 134.761 24.4719 134.761 23.4564C134.761 22.6076 134.981 21.8422 135.421 21.1602C135.876 20.4781 136.558 19.9325 137.468 19.5232C138.378 19.114 139.508 18.9094 140.858 18.9094C141.799 18.9094 142.724 19.0306 143.634 19.2732C144.544 19.5157 145.326 19.8643 145.978 20.319L145.227 22.1378C144.56 21.7134 143.847 21.3951 143.088 21.1829C142.33 20.9555 141.587 20.8419 140.858 20.8419C139.569 20.8419 138.598 21.0768 137.946 21.5466C137.309 22.0165 136.99 22.6228 136.99 23.3654C136.99 23.9111 137.172 24.3582 137.537 24.7068C137.901 25.0402 138.348 25.3055 138.879 25.5025C139.425 25.6844 140.161 25.8814 141.086 26.0936C142.284 26.3816 143.247 26.6696 143.976 26.9576C144.704 27.2455 145.326 27.6851 145.841 28.2762C146.372 28.8673 146.638 29.663 146.638 30.6634C146.638 31.497 146.41 32.2624 145.955 32.9596C145.5 33.6416 144.81 34.1873 143.885 34.5965C142.959 34.9906 141.822 35.1876 140.472 35.1876Z" fill="#804314"/>
<path d="M166.155 26.7984C167.202 27.0258 168.006 27.4805 168.567 28.1625C169.143 28.8294 169.431 29.6933 169.431 30.7543C169.431 32.1184 168.923 33.1718 167.907 33.9145C166.906 34.642 165.419 35.0057 163.447 35.0057H156.121V19.0913H162.992C164.767 19.0913 166.14 19.4475 167.111 20.1598C168.097 20.8722 168.59 21.8801 168.59 23.1836C168.59 24.0627 168.37 24.8129 167.93 25.4343C167.505 26.0406 166.913 26.4953 166.155 26.7984ZM157.805 20.4781V26.2528H162.879C164.168 26.2528 165.162 26.0103 165.859 25.5253C166.557 25.0251 166.906 24.3052 166.906 23.3655C166.906 22.4257 166.557 21.7134 165.859 21.2284C165.162 20.7282 164.168 20.4781 162.879 20.4781H157.805ZM163.425 33.6189C164.851 33.6189 165.928 33.3764 166.656 32.8914C167.384 32.4064 167.748 31.6485 167.748 30.6179C167.748 28.6324 166.307 27.6396 163.425 27.6396H157.805V33.6189H163.425Z" fill="#EE8D31"/>
<path d="M180.237 35.1421C178.659 35.1421 177.226 34.7935 175.937 34.0963C174.663 33.384 173.661 32.414 172.933 31.1863C172.22 29.9586 171.864 28.5793 171.864 27.0485C171.864 25.5177 172.22 24.1384 172.933 22.9108C173.661 21.6831 174.663 20.7206 175.937 20.0234C177.226 19.3111 178.659 18.9549 180.237 18.9549C181.814 18.9549 183.233 19.3035 184.492 20.0007C185.766 20.6979 186.767 21.6679 187.495 22.9108C188.223 24.1384 188.587 25.5177 188.587 27.0485C188.587 28.5793 188.223 29.9662 187.495 31.209C186.767 32.4367 185.766 33.3991 184.492 34.0963C183.233 34.7935 181.814 35.1421 180.237 35.1421ZM180.237 33.6416C181.496 33.6416 182.634 33.3612 183.65 32.8004C184.666 32.2245 185.463 31.4363 186.039 30.436C186.615 29.4205 186.904 28.2914 186.904 27.0485C186.904 25.8057 186.615 24.6841 186.039 23.6837C185.463 22.6683 184.666 21.8801 183.65 21.3193C182.634 20.7434 181.496 20.4554 180.237 20.4554C178.978 20.4554 177.833 20.7434 176.801 21.3193C175.785 21.8801 174.981 22.6683 174.389 23.6837C173.813 24.6841 173.525 25.8057 173.525 27.0485C173.525 28.2914 173.813 29.4205 174.389 30.436C174.981 31.4363 175.785 32.2245 176.801 32.8004C177.833 33.3612 178.978 33.6416 180.237 33.6416Z" fill="#EE8D31"/>
<path d="M213.738 19.0913L208.368 35.0057H206.594L201.929 21.433L197.242 35.0057H195.49L190.12 19.0913H191.85L196.446 32.7777L201.201 19.0913H202.771L207.458 32.8459L212.122 19.0913H213.738Z" fill="#EE8D31"/>
<path d="M216.825 19.0913H218.509V33.5507H227.428V35.0057H216.825V19.0913Z" fill="#EE8D31"/>
<path d="M93.8828 47.6004H89.0301L87.9848 49.9254H87.0267L91.0085 41.2222H91.9168L95.8986 49.9254H94.928L93.8828 47.6004ZM93.5469 46.8544L91.4564 42.1796L89.366 46.8544H93.5469Z" fill="#804314"/>
<path d="M108.622 41.2222V49.9254H107.713V45.9095H102.263V49.9254H101.343V41.2222H102.263V45.1013H107.713V41.2222H108.622Z" fill="#804314"/>
<path d="M117.997 49.1297V49.9254H111.838V41.2222H117.811V42.0179H112.759V45.1138H117.263V45.8971H112.759V49.1297H117.997Z" fill="#804314"/>
<path d="M125.997 47.6004H121.145L120.099 49.9254H119.141L123.123 41.2222H124.031L128.013 49.9254H127.043L125.997 47.6004ZM125.661 46.8544L123.571 42.1796L121.481 46.8544H125.661Z" fill="#804314"/>
<path d="M129.827 41.2222H130.748V49.1297H135.626V49.9254H129.827V41.2222Z" fill="#804314"/>
<path d="M138.406 42.0179H135.345V41.2222H142.388V42.0179H139.327V49.9254H138.406V42.0179Z" fill="#804314"/>
<path d="M151.511 41.2222V49.9254H150.603V45.9095H145.153V49.9254H144.232V41.2222H145.153V45.1013H150.603V41.2222H151.511Z" fill="#804314"/>
<path d="M157.714 46.9166V49.9254H156.805V46.9166L153.321 41.2222H154.304L157.291 46.1084L160.277 41.2222H161.198L157.714 46.9166Z" fill="#804314"/>
<path d="M170.412 50C169.549 50 168.769 49.8094 168.072 49.4281C167.384 49.0468 166.84 48.5205 166.442 47.8491C166.052 47.1694 165.857 46.411 165.857 45.5738C165.857 44.7366 166.052 43.9824 166.442 43.311C166.84 42.6313 167.388 42.1008 168.085 41.7195C168.782 41.3382 169.561 41.1476 170.424 41.1476C171.071 41.1476 171.668 41.2554 172.216 41.4709C172.763 41.6864 173.228 42.0013 173.609 42.4158L173.025 43.0001C172.344 42.3122 171.486 41.9682 170.449 41.9682C169.76 41.9682 169.134 42.1257 168.57 42.4406C168.006 42.7556 167.562 43.1866 167.239 43.7337C166.923 44.2808 166.766 44.8941 166.766 45.5738C166.766 46.2535 166.923 46.8669 167.239 47.4139C167.562 47.961 168.006 48.392 168.57 48.707C169.134 49.0219 169.76 49.1794 170.449 49.1794C171.494 49.1794 172.353 48.8313 173.025 48.135L173.609 48.7194C173.228 49.1338 172.759 49.4529 172.203 49.6767C171.656 49.8923 171.059 50 170.412 50Z" fill="#804314"/>
<path d="M179.571 50C178.708 50 177.924 49.8094 177.219 49.4281C176.522 49.0385 175.975 48.508 175.577 47.8366C175.187 47.1652 174.992 46.411 174.992 45.5738C174.992 44.7366 175.187 43.9824 175.577 43.311C175.975 42.6396 176.522 42.1132 177.219 41.732C177.924 41.3424 178.708 41.1476 179.571 41.1476C180.434 41.1476 181.209 41.3382 181.898 41.7195C182.595 42.1008 183.142 42.6313 183.54 43.311C183.938 43.9824 184.137 44.7366 184.137 45.5738C184.137 46.411 183.938 47.1694 183.54 47.8491C183.142 48.5205 182.595 49.0468 181.898 49.4281C181.209 49.8094 180.434 50 179.571 50ZM179.571 49.1794C180.259 49.1794 180.882 49.0261 181.437 48.7194C181.993 48.4044 182.429 47.9734 182.744 47.4263C183.059 46.871 183.217 46.2535 183.217 45.5738C183.217 44.8941 183.059 44.2808 182.744 43.7337C182.429 43.1783 181.993 42.7473 181.437 42.4406C180.882 42.1257 180.259 41.9682 179.571 41.9682C178.882 41.9682 178.256 42.1257 177.692 42.4406C177.136 42.7473 176.697 43.1783 176.373 43.7337C176.058 44.2808 175.9 44.8941 175.9 45.5738C175.9 46.2535 176.058 46.871 176.373 47.4263C176.697 47.9734 177.136 48.4044 177.692 48.7194C178.256 49.0261 178.882 49.1794 179.571 49.1794Z" fill="#804314"/>
<path d="M193.854 41.2222V49.9254H192.945V45.9095H187.495V49.9254H186.575V41.2222H187.495V45.1013H192.945V41.2222H193.854Z" fill="#804314"/>
<path d="M200.878 50C200.015 50 199.231 49.8094 198.526 49.4281C197.829 49.0385 197.281 48.508 196.883 47.8366C196.493 47.1652 196.299 46.411 196.299 45.5738C196.299 44.7366 196.493 43.9824 196.883 43.311C197.281 42.6396 197.829 42.1132 198.526 41.732C199.231 41.3424 200.015 41.1476 200.878 41.1476C201.74 41.1476 202.516 41.3382 203.204 41.7195C203.901 42.1008 204.449 42.6313 204.847 43.311C205.245 43.9824 205.444 44.7366 205.444 45.5738C205.444 46.411 205.245 47.1694 204.847 47.8491C204.449 48.5205 203.901 49.0468 203.204 49.4281C202.516 49.8094 201.74 50 200.878 50ZM200.878 49.1794C201.566 49.1794 202.188 49.0261 202.744 48.7194C203.3 48.4044 203.735 47.9734 204.05 47.4263C204.366 46.871 204.523 46.2535 204.523 45.5738C204.523 44.8941 204.366 44.2808 204.05 43.7337C203.735 43.1783 203.3 42.7473 202.744 42.4406C202.188 42.1257 201.566 41.9682 200.878 41.9682C200.189 41.9682 199.563 42.1257 198.999 42.4406C198.443 42.7473 198.003 43.1783 197.68 43.7337C197.364 44.2808 197.207 44.8941 197.207 45.5738C197.207 46.2535 197.364 46.871 197.68 47.4263C198.003 47.9734 198.443 48.4044 198.999 48.7194C199.563 49.0261 200.189 49.1794 200.878 49.1794Z" fill="#804314"/>
<path d="M207.881 41.2222H208.802V49.9254H207.881V41.2222Z" fill="#804314"/>
<path d="M215.792 50C214.929 50 214.15 49.8094 213.453 49.4281C212.764 49.0468 212.221 48.5205 211.823 47.8491C211.433 47.1694 211.238 46.411 211.238 45.5738C211.238 44.7366 211.433 43.9824 211.823 43.311C212.221 42.6313 212.768 42.1008 213.465 41.7195C214.162 41.3382 214.942 41.1476 215.804 41.1476C216.451 41.1476 217.049 41.2554 217.596 41.4709C218.144 41.6864 218.608 42.0013 218.99 42.4158L218.405 43.0001C217.725 42.3122 216.866 41.9682 215.829 41.9682C215.141 41.9682 214.515 42.1257 213.95 42.4406C213.386 42.7556 212.943 43.1866 212.619 43.7337C212.304 44.2808 212.146 44.8941 212.146 45.5738C212.146 46.2535 212.304 46.8669 212.619 47.4139C212.943 47.961 213.386 48.392 213.95 48.707C214.515 49.0219 215.141 49.1794 215.829 49.1794C216.875 49.1794 217.733 48.8313 218.405 48.135L218.99 48.7194C218.608 49.1338 218.14 49.4529 217.584 49.6767C217.036 49.8923 216.439 50 215.792 50Z" fill="#804314"/>
<path d="M227.485 49.1297V49.9254H221.326V41.2222H227.299V42.0179H222.247V45.1138H226.751V45.8971H222.247V49.1297H227.485Z" fill="#804314"/>
<path d="M24.0414 18.5366C23.6103 18.2462 23.0259 18.5512 23.0494 19.0704C23.3583 25.9062 26.2118 32.3987 31.0753 37.2583C36.2321 42.4111 43.2262 45.3058 50.5191 45.3058C57.8119 45.3058 64.8061 42.4111 69.9629 37.2583C74.8264 32.3987 77.6799 25.9062 77.9888 19.0704C78.0123 18.5512 77.4279 18.2462 76.9968 18.5366C69.2351 23.7645 60.0139 26.6158 50.5191 26.6158C41.0243 26.6158 31.803 23.7645 24.0414 18.5366Z" fill="#EE8D31"/>
<path fill-rule="evenodd" clip-rule="evenodd" d="M4.79612 9.56823C1.72468 9.83628 0 10.6388 0 11.8C0 12.8518 1.05579 13.9008 2.9688 14.7502C4.37022 15.3722 6.22408 15.7482 8.47314 15.8666C10.6917 15.9834 10.9983 16.0173 12.9495 16.362C17.0713 17.0899 22.8455 19.2692 28.377 22.1842C31.1212 23.6304 36.9926 26.9966 37.3736 27.3425C37.5734 27.5238 38.16 28.3599 38.6768 29.2003C40.5388 32.228 42.4148 33.4157 46.025 33.8529C47.9249 34.0829 49.8465 33.8893 51.61 33.2899C55.3315 32.0251 58.4411 29.1811 58.7766 26.7356C58.899 25.8422 58.6092 25.3505 57.681 24.8773C56.3238 24.1855 55.14 24.1066 46.0318 24.1006C38.708 24.0959 37.3419 24.0585 36.5995 23.8425C35.1856 23.4312 32.3867 21.8631 27.4376 18.7096C24.8768 17.0778 21.8823 15.205 20.7832 14.5479C16.7997 12.1665 12.9038 10.3631 10.5296 9.80177C9.17929 9.48244 6.861 9.38803 4.79612 9.56823ZM55.3871 30.1446C54.9573 30.5382 52.8703 31.6594 51.8001 32.0719C49.3213 33.027 47.058 33.1026 44.6838 32.3094C43.4797 31.907 41.8861 31.1934 41.8861 31.0564C41.8861 31.0222 42.5075 31.1652 43.267 31.374C45.424 31.9669 47.7356 32.1748 49.474 31.9321C51.0209 31.7161 53.2944 31.0409 54.5958 30.4109C55.4789 29.9834 55.6122 29.9387 55.3871 30.1446Z" fill="#804314"/>
<path d="M22.0919 1.25162C22.2749 0.680538 22.4552 0.159292 22.4926 0.0934776C22.6177 -0.12681 22.7038 -0.0327196 23.5131 1.20594C25.3347 3.99411 26.1209 6.36456 26.1243 9.07909C26.1263 10.6813 25.8598 12.3403 25.5719 12.5181C25.3216 12.6727 23.8125 7.4644 23.5699 5.60769C23.3881 4.21743 23.1812 4.83181 23.1812 6.76184C23.1812 8.56983 23.4159 10.1177 23.8934 11.4602C24.0312 11.8473 24.1161 12.1919 24.0821 12.2257C23.9868 12.3211 23.2261 11.369 22.7526 10.5618C21.2433 7.98836 21.0057 4.64044 22.0919 1.25162Z" fill="#804314"/>
<path d="M28.6168 12.3764C28.6168 12.2403 29.5511 11.7741 30.2954 11.539C31.2197 11.2468 32.3599 11.2767 33.761 11.6294C35.4856 12.0638 38.5496 13.5973 38.2607 13.8818C38.1883 13.953 37.4816 14.1995 36.6903 14.4296C34.7932 14.9808 32.4934 15.1158 30.8758 14.7708C29.7356 14.5276 28.1329 13.7786 28.0184 13.4353C27.9874 13.3425 28.2696 13.2321 28.6493 13.1887C29.809 13.0556 33.6267 13.1813 34.0924 13.3679C34.3341 13.4647 34.532 13.4836 34.532 13.4096C34.532 13.1799 32.6161 12.5641 31.4278 12.4118C30.805 12.3321 29.9177 12.3126 29.4561 12.3687C28.9946 12.4248 28.6168 12.4281 28.6168 12.3764Z" fill="#804314"/>
<path d="M80.6947 18.0511C80.9375 18.0511 81.1346 18.2483 81.1324 18.491C81.0581 26.8053 78.8609 34.7546 72.9684 40.6424C66.9721 46.634 58.8394 50 50.3593 50C41.8792 50 33.7465 46.634 27.7502 40.6424C21.8672 34.764 19.6676 26.8308 19.5866 18.531C19.584 18.2661 19.799 18.0512 20.0638 18.0512C20.3287 18.0512 20.5429 18.2661 20.5488 18.5309C20.715 25.983 24.7287 33.1035 30.0119 38.3825C35.4084 43.7747 42.7276 46.804 50.3593 46.804C57.9911 46.804 65.3102 43.7747 70.7067 38.3825C75.9993 33.094 80.0949 25.9576 80.2505 18.491C80.2556 18.2482 80.4519 18.0511 80.6947 18.0511Z" fill="#804314"/>
</svg>
