<svg width="140" height="122" viewBox="0 0 140 122" fill="none" xmlns="http://www.w3.org/2000/svg">
<path d="M41.5012 107.349H35.0176L33.6756 110.399H31.8804L37.4054 98.1987H39.1308L44.6733 110.399H42.8432L41.5012 107.349ZM40.8912 105.955L38.2594 99.9765L35.6276 105.955H40.8912Z" fill="#804314"/>
<path d="M54.7761 104.229H56.4493V108.987C55.8451 109.487 55.1421 109.87 54.3404 110.138C53.5386 110.405 52.702 110.538 51.8306 110.538C50.5989 110.538 49.4893 110.271 48.5016 109.737C47.514 109.191 46.7355 108.447 46.1662 107.506C45.6084 106.553 45.3296 105.484 45.3296 104.299C45.3296 103.114 45.6084 102.045 46.1662 101.092C46.7355 100.139 47.514 99.3955 48.5016 98.861C49.5009 98.3265 50.6222 98.0593 51.8654 98.0593C52.8415 98.0593 53.7245 98.222 54.5146 98.5473C55.3164 98.861 55.9961 99.3258 56.5538 99.9416L55.4732 101.022C54.4972 100.081 53.3179 99.6105 51.9352 99.6105C51.0056 99.6105 50.169 99.8138 49.4254 100.22C48.6934 100.616 48.1182 101.173 47.6999 101.894C47.2816 102.602 47.0725 103.404 47.0725 104.299C47.0725 105.182 47.2816 105.984 47.6999 106.704C48.1182 107.413 48.6934 107.971 49.4254 108.377C50.169 108.784 50.9998 108.987 51.9177 108.987C53.0099 108.987 53.9627 108.726 54.7761 108.203V104.229Z" fill="#804314"/>
<path d="M59.7862 98.1987H61.5291V110.399H59.7862V98.1987Z" fill="#804314"/>
<path d="M65.356 97.3621C65.6814 97.3621 65.9486 97.4783 66.1578 97.7107C66.3785 97.9315 66.4889 98.2103 66.4889 98.5473C66.4889 98.7216 66.4715 98.8959 66.4366 99.0702C66.4018 99.2328 66.3262 99.471 66.21 99.7848L65.3735 102.225H64.2754L64.9203 99.6279C64.6995 99.5466 64.5194 99.4129 64.38 99.227C64.2522 99.0295 64.1883 98.8029 64.1883 98.5473C64.1883 98.1987 64.2987 97.914 64.5194 97.6933C64.7402 97.4725 65.0191 97.3621 65.356 97.3621Z" fill="#804314"/>
<path d="M72.8562 110.538C71.9383 110.538 71.0494 110.399 70.1896 110.12C69.3414 109.83 68.6733 109.458 68.1852 109.005L68.8301 107.645C69.2949 108.064 69.8875 108.406 70.6079 108.674C71.3399 108.929 72.0893 109.057 72.8562 109.057C73.8671 109.057 74.6224 108.888 75.122 108.552C75.6216 108.203 75.8714 107.744 75.8714 107.175C75.8714 106.756 75.732 106.419 75.4531 106.164C75.1859 105.897 74.8489 105.693 74.4422 105.554C74.0472 105.414 73.4837 105.257 72.7516 105.083C71.8337 104.862 71.0901 104.642 70.5207 104.421C69.963 104.2 69.4808 103.863 69.0741 103.41C68.6791 102.945 68.4815 102.324 68.4815 101.545C68.4815 100.894 68.65 100.308 68.987 99.7848C69.3356 99.2619 69.8584 98.8436 70.5556 98.5299C71.2527 98.2161 72.1184 98.0593 73.1525 98.0593C73.8729 98.0593 74.5817 98.1522 75.2788 98.3381C75.976 98.5241 76.5744 98.7913 77.074 99.1399L76.4989 100.534C75.9876 100.209 75.4415 99.9649 74.8605 99.8022C74.2796 99.6279 73.7102 99.5407 73.1525 99.5407C72.1649 99.5407 71.4212 99.7208 70.9216 100.081C70.4336 100.441 70.1896 100.906 70.1896 101.475C70.1896 101.894 70.329 102.236 70.6079 102.504C70.8867 102.759 71.2295 102.963 71.6362 103.114C72.0545 103.253 72.618 103.404 73.3268 103.567C74.2447 103.788 74.9825 104.008 75.5403 104.229C76.098 104.45 76.5744 104.787 76.9695 105.24C77.3761 105.693 77.5795 106.303 77.5795 107.07C77.5795 107.709 77.4052 108.296 77.0566 108.83C76.708 109.353 76.1793 109.772 75.4706 110.085C74.7618 110.387 73.8903 110.538 72.8562 110.538Z" fill="#804314"/>
<path d="M92.5299 104.107C93.3317 104.281 93.9475 104.63 94.3774 105.153C94.8189 105.664 95.0397 106.326 95.0397 107.14C95.0397 108.186 94.6505 108.993 93.872 109.562C93.1051 110.12 91.9664 110.399 90.4559 110.399H84.8438V98.1987H90.1073C91.4668 98.1987 92.5183 98.4718 93.262 99.0179C94.0172 99.564 94.3948 100.337 94.3948 101.336C94.3948 102.01 94.2264 102.585 93.8894 103.061C93.5641 103.526 93.1109 103.875 92.5299 104.107ZM86.1335 99.2619V103.689H90.0202C91.0078 103.689 91.7689 103.503 92.3034 103.131C92.8378 102.748 93.1051 102.196 93.1051 101.475C93.1051 100.755 92.8378 100.209 92.3034 99.837C91.7689 99.4536 91.0078 99.2619 90.0202 99.2619H86.1335ZM90.4385 109.336C91.5307 109.336 92.3556 109.15 92.9134 108.778C93.4711 108.406 93.75 107.825 93.75 107.035C93.75 105.513 92.6461 104.752 90.4385 104.752H86.1335V109.336H90.4385Z" fill="#EE8D31"/>
<path d="M103.317 110.504C102.108 110.504 101.01 110.236 100.023 109.702C99.0467 109.156 98.2799 108.412 97.7221 107.471C97.176 106.53 96.903 105.472 96.903 104.299C96.903 103.125 97.176 102.068 97.7221 101.127C98.2799 100.186 99.0467 99.4478 100.023 98.9133C101.01 98.3672 102.108 98.0941 103.317 98.0941C104.525 98.0941 105.612 98.3614 106.576 98.8959C107.552 99.4303 108.319 100.174 108.877 101.127C109.434 102.068 109.713 103.125 109.713 104.299C109.713 105.472 109.434 106.536 108.877 107.488C108.319 108.43 107.552 109.167 106.576 109.702C105.612 110.236 104.525 110.504 103.317 110.504ZM103.317 109.353C104.281 109.353 105.153 109.138 105.931 108.708C106.71 108.267 107.32 107.663 107.761 106.896C108.203 106.117 108.424 105.252 108.424 104.299C108.424 103.346 108.203 102.486 107.761 101.719C107.32 100.941 106.71 100.337 105.931 99.9067C105.153 99.4652 104.281 99.2444 103.317 99.2444C102.352 99.2444 101.475 99.4652 100.685 99.9067C99.9066 100.337 99.2908 100.941 98.8376 101.719C98.3961 102.486 98.1753 103.346 98.1753 104.299C98.1753 105.252 98.3961 106.117 98.8376 106.896C99.2908 107.663 99.9066 108.267 100.685 108.708C101.475 109.138 102.352 109.353 103.317 109.353Z" fill="#EE8D31"/>
<path d="M128.979 98.1987L124.866 110.399H123.506L119.933 99.9939L116.343 110.399H115.001L110.888 98.1987H112.212L115.733 108.691L119.376 98.1987H120.578L124.169 108.743L127.742 98.1987H128.979Z" fill="#EE8D31"/>
<path d="M131.344 98.1987H132.634V109.284H139.466V110.399H131.344V98.1987Z" fill="#EE8D31"/>
<path d="M37.1686 120.054H33.4513L32.6507 121.837H31.9167L34.9668 115.165H35.6626L38.7127 121.837H37.9692L37.1686 120.054ZM36.9112 119.482L35.31 115.899L33.7087 119.482H36.9112Z" fill="#804314"/>
<path d="M48.4588 115.165V121.837H47.763V118.758H43.5882V121.837H42.8829V115.165H43.5882V118.138H47.763V115.165H48.4588Z" fill="#804314"/>
<path d="M55.6405 121.227V121.837H50.9225V115.165H55.4976V115.775H51.6278V118.148H55.0782V118.749H51.6278V121.227H55.6405Z" fill="#804314"/>
<path d="M61.7688 120.054H58.0515L57.2508 121.837H56.5169L59.567 115.165H60.2628L63.3129 121.837H62.5694L61.7688 120.054ZM61.5114 119.482L59.9101 115.899L58.3088 119.482H61.5114Z" fill="#804314"/>
<path d="M64.7025 115.165H65.4078V121.227H69.1442V121.837H64.7025V115.165Z" fill="#804314"/>
<path d="M71.2739 115.775H68.9291V115.165H74.324V115.775H71.9792V121.837H71.2739V115.775Z" fill="#804314"/>
<path d="M81.3126 115.165V121.837H80.6168V118.758H76.442V121.837H75.7367V115.165H76.442V118.138H80.6168V115.165H81.3126Z" fill="#804314"/>
<path d="M86.0638 119.53V121.837H85.368V119.53L82.6992 115.165H83.4522L85.7398 118.911L88.0273 115.165H88.7326L86.0638 119.53Z" fill="#804314"/>
<path d="M95.7906 121.894C95.1297 121.894 94.5324 121.748 93.9986 121.455C93.4712 121.163 93.055 120.76 92.75 120.245C92.4514 119.724 92.302 119.142 92.302 118.501C92.302 117.859 92.4514 117.281 92.75 116.766C93.055 116.245 93.4744 115.838 94.0082 115.546C94.5419 115.254 95.1392 115.107 95.8001 115.107C96.2957 115.107 96.7532 115.19 97.1726 115.355C97.592 115.521 97.9479 115.762 98.2402 116.08L97.7922 116.528C97.2711 116 96.6135 115.737 95.8192 115.737C95.2918 115.737 94.812 115.857 94.3799 116.099C93.9478 116.34 93.6079 116.671 93.36 117.09C93.1186 117.509 92.9978 117.98 92.9978 118.501C92.9978 119.022 93.1186 119.492 93.36 119.911C93.6079 120.331 93.9478 120.661 94.3799 120.903C94.812 121.144 95.2918 121.265 95.8192 121.265C96.6198 121.265 97.2775 120.998 97.7922 120.464L98.2402 120.912C97.9479 121.23 97.5888 121.475 97.1631 121.646C96.7437 121.811 96.2862 121.894 95.7906 121.894Z" fill="#804314"/>
<path d="M102.807 121.894C102.146 121.894 101.545 121.748 101.005 121.455C100.471 121.157 100.052 120.75 99.7471 120.235C99.4484 119.721 99.2991 119.142 99.2991 118.501C99.2991 117.859 99.4484 117.281 99.7471 116.766C100.052 116.251 100.471 115.848 101.005 115.555C101.545 115.257 102.146 115.107 102.807 115.107C103.468 115.107 104.062 115.254 104.589 115.546C105.123 115.838 105.542 116.245 105.847 116.766C106.152 117.281 106.305 117.859 106.305 118.501C106.305 119.142 106.152 119.724 105.847 120.245C105.542 120.76 105.123 121.163 104.589 121.455C104.062 121.748 103.468 121.894 102.807 121.894ZM102.807 121.265C103.334 121.265 103.811 121.147 104.236 120.912C104.662 120.671 104.996 120.34 105.237 119.921C105.479 119.495 105.599 119.022 105.599 118.501C105.599 117.98 105.479 117.509 105.237 117.09C104.996 116.664 104.662 116.334 104.236 116.099C103.811 115.857 103.334 115.737 102.807 115.737C102.279 115.737 101.8 115.857 101.367 116.099C100.942 116.334 100.605 116.664 100.357 117.09C100.116 117.509 99.9949 117.98 99.9949 118.501C99.9949 119.022 100.116 119.495 100.357 119.921C100.605 120.34 100.942 120.671 101.367 120.912C101.8 121.147 102.279 121.265 102.807 121.265Z" fill="#804314"/>
<path d="M113.748 115.165V121.837H113.052V118.758H108.877V121.837H108.172V115.165H108.877V118.138H113.052V115.165H113.748Z" fill="#804314"/>
<path d="M119.128 121.894C118.467 121.894 117.867 121.748 117.326 121.455C116.793 121.157 116.373 120.75 116.068 120.235C115.77 119.721 115.62 119.142 115.62 118.501C115.62 117.859 115.77 117.281 116.068 116.766C116.373 116.251 116.793 115.848 117.326 115.555C117.867 115.257 118.467 115.107 119.128 115.107C119.789 115.107 120.383 115.254 120.91 115.546C121.444 115.838 121.863 116.245 122.168 116.766C122.473 117.281 122.626 117.859 122.626 118.501C122.626 119.142 122.473 119.724 122.168 120.245C121.863 120.76 121.444 121.163 120.91 121.455C120.383 121.748 119.789 121.894 119.128 121.894ZM119.128 121.265C119.655 121.265 120.132 121.147 120.558 120.912C120.983 120.671 121.317 120.34 121.558 119.921C121.8 119.495 121.921 119.022 121.921 118.501C121.921 117.98 121.8 117.509 121.558 117.09C121.317 116.664 120.983 116.334 120.558 116.099C120.132 115.857 119.655 115.737 119.128 115.737C118.6 115.737 118.121 115.857 117.689 116.099C117.263 116.334 116.926 116.664 116.678 117.09C116.437 117.509 116.316 117.98 116.316 118.501C116.316 119.022 116.437 119.495 116.678 119.921C116.926 120.34 117.263 120.671 117.689 120.912C118.121 121.147 118.6 121.265 119.128 121.265Z" fill="#804314"/>
<path d="M124.493 115.165H125.198V121.837H124.493V115.165Z" fill="#804314"/>
<path d="M130.553 121.894C129.892 121.894 129.294 121.748 128.761 121.455C128.233 121.163 127.817 120.76 127.512 120.245C127.213 119.724 127.064 119.142 127.064 118.501C127.064 117.859 127.213 117.281 127.512 116.766C127.817 116.245 128.236 115.838 128.77 115.546C129.304 115.254 129.901 115.107 130.562 115.107C131.058 115.107 131.515 115.19 131.935 115.355C132.354 115.521 132.71 115.762 133.002 116.08L132.554 116.528C132.033 116 131.375 115.737 130.581 115.737C130.054 115.737 129.574 115.857 129.142 116.099C128.71 116.34 128.37 116.671 128.122 117.09C127.881 117.509 127.76 117.98 127.76 118.501C127.76 119.022 127.881 119.492 128.122 119.911C128.37 120.331 128.71 120.661 129.142 120.903C129.574 121.144 130.054 121.265 130.581 121.265C131.382 121.265 132.039 120.998 132.554 120.464L133.002 120.912C132.71 121.23 132.351 121.475 131.925 121.646C131.506 121.811 131.048 121.894 130.553 121.894Z" fill="#804314"/>
<path d="M139.51 121.227V121.837H134.792V115.165H139.367V115.775H135.497V118.148H138.947V118.749H135.497V121.227H139.51Z" fill="#804314"/>
<path d="M70.5684 51.0315H94.8056V52.9378C82.1831 58.405 77.0676 58.0722 70.5684 52.9378V51.0315Z" fill="white"/>
<path d="M41.8666 38.3185C40.9374 37.8235 39.8254 38.601 40.0613 39.627C42.0674 48.3509 46.6909 57.3444 52.9697 63.6232C61.754 72.4074 73.668 77.3424 86.0909 77.3424C98.5137 77.3424 110.428 72.4074 119.212 63.6232C125.467 57.3684 129.77 49.5268 131.73 41.0445C131.969 40.0083 130.746 39.0583 129.741 39.4081C117.964 43.5101 71.4657 54.0864 41.8666 38.3185Z" fill="#EE8D31"/>
<path fill-rule="evenodd" clip-rule="evenodd" d="M13.1853 26.5359C8.01675 27.4677 5.21576 29.0978 5.39612 31.0691C5.55949 32.8547 7.51341 34.4718 10.8905 35.6168C13.3644 36.4553 16.5676 36.806 20.4011 36.6579C24.1826 36.5118 24.7081 36.5217 28.0715 36.8041C35.1766 37.4002 45.3101 40.2037 55.1462 44.2939C60.0259 46.3231 70.5087 51.1268 71.2087 51.6548C71.5759 51.9316 72.7008 53.26 73.7081 54.6065C77.337 59.4575 80.7037 61.1826 86.8957 61.3646C90.1543 61.4602 93.384 60.8333 96.2825 59.542C102.399 56.8171 107.232 51.5064 107.421 47.3026C107.49 45.7668 106.922 44.9771 105.274 44.3178C102.864 43.3539 100.844 43.4037 85.3926 44.8073C72.9681 45.9359 70.6449 46.0844 69.3519 45.833C66.8896 45.3541 61.8982 43.1265 53.013 38.5409C48.4155 36.1681 43.0449 33.4534 41.0783 32.5086C33.9511 29.0838 27.0622 26.627 22.9475 26.0425C20.6074 25.71 16.6601 25.9095 13.1853 26.5359ZM102.201 53.616C101.533 54.3509 98.167 56.5784 96.4157 57.4447C92.3592 59.4509 88.5316 59.9304 84.3809 58.9524C82.2758 58.4562 79.4616 57.4921 79.4404 57.2594C79.435 57.2014 80.5114 57.3477 81.8323 57.5842C85.5833 58.2561 89.5368 58.2502 92.4481 57.5684C95.0387 56.9617 98.7904 55.4625 100.9 54.1909C102.332 53.3281 102.551 53.2315 102.201 53.616Z" fill="#804314"/>
<path d="M38.1802 4.13374C38.492 3.16016 38.7992 2.27156 38.8629 2.15936C39.0759 1.78382 39.2227 1.94422 40.6012 4.05585C43.7041 8.80907 45.0434 12.8501 45.0491 17.4778C45.0527 20.2093 44.5987 23.0374 44.1082 23.3405C43.6818 23.6041 41.1113 14.7251 40.6979 11.5598C40.3882 9.18978 40.0358 10.2372 40.0358 13.5274C40.0358 16.6096 40.4356 19.2485 41.2491 21.5371C41.4838 22.197 41.6284 22.7844 41.5704 22.8421C41.4081 23.0047 40.1124 21.3816 39.3057 20.0056C36.7347 15.6184 36.33 9.9109 38.1802 4.13374Z" fill="#804314"/>
<path d="M49.295 23.0989C49.295 22.8669 50.8865 22.0723 52.1544 21.6714C53.7288 21.1733 55.671 21.2242 58.0577 21.8255C60.9956 22.566 66.2147 25.1803 65.7226 25.6654C65.5993 25.7868 64.3956 26.207 63.0476 26.5992C59.8161 27.539 55.8984 27.7691 53.143 27.1809C51.2007 26.7664 48.4707 25.4894 48.2757 24.9042C48.2228 24.746 48.7035 24.5578 49.3503 24.4837C51.3257 24.2569 57.8289 24.4712 58.6222 24.7893C59.034 24.9543 59.3711 24.9864 59.3711 24.8604C59.3711 24.4687 56.1076 23.4189 54.0833 23.1594C53.0223 23.0235 51.5109 22.9903 50.7247 23.0859C49.9385 23.1814 49.295 23.1872 49.295 23.0989Z" fill="#804314"/>
<path d="M136.621 30.8792C137.516 30.8792 138.244 31.6053 138.226 32.5004C137.956 46.3575 134.163 59.5607 124.332 69.3922C114.117 79.6065 100.264 85.3448 85.8187 85.3448C71.3735 85.3448 57.5199 79.6065 47.3057 69.3922C37.517 59.6036 33.7148 46.4726 33.415 32.6817C33.3933 31.6866 34.2024 30.8792 35.1977 30.8792V30.8792C36.193 30.8792 36.9965 31.6867 37.0317 32.6814C37.4688 45.027 42.3915 56.7727 51.1583 65.5396C60.3508 74.7321 72.8185 79.8963 85.8187 79.8963C98.8188 79.8963 111.287 74.7321 120.479 65.5396C129.289 56.7298 134.549 44.912 134.972 32.5002C135.003 31.6055 135.726 30.8792 136.621 30.8792V30.8792Z" fill="#804314"/>
</svg>
